<mxfile host="app.diagrams.net" modified="2024-03-14T09:49:59.024Z" agent="Mozilla/5.0 (Windows NT 10.0; Win64; x64) AppleWebKit/537.36 (KHTML, like Gecko) Chrome/122.0.0.0 Safari/537.36" version="24.0.0" etag="7CEPzu5araB-XmBkFyku" type="github">
  <diagram name="PÃ¡gina-1" id="GJcKqoOWY0cRY3r_Y9J6">
    <mxGraphModel>
      <root>
        <mxCell id="0" />
        <mxCell id="1" parent="0" />
      </root>
    </mxGraphModel>
  </diagram>
</mxfile>
